<svg version="1" xmlns="http://www.w3.org/2000/svg" width="3058.667" height="3058.667" viewBox="0 0 2294.000000 2294.000000"><path d="M1133.1 14.2c-7.4 7.3-14.1 13.9-14.9 14.6-2 1.8-19 13.2-19.7 13.2-.6 0-12.4 8.1-18 12.4-11.4 8.7-17.2 16.3-21 27.2-6 17.4-2.7 33 9.4 43.5l4 3.6-1.4 4.8c-.8 2.6-1.6 7.1-1.7 9.9-.3 4.6-.7 5.4-3.9 7.7-2.1 1.6-4.4 4.6-5.7 7.7-1.3 2.9-3 5.3-4.2 5.7-2.6.8-6.6 6.2-7.6 10-.4 1.6-2.7 4.9-5.1 7.2-4.9 4.8-4.5 2.6-4.7 29.7l-.1 17-2.7.7c-1.5.4-5.3 1-8.5 1.4-19.1 2.1-61.2 9.6-85.3 15-1.4.3-13.5 3.2-17 4-40.5 9.9-104.7 31.3-137.5 46-1.6.7-8.4 3.7-15 6.5-27.5 12-68.1 32.9-95.2 49.2-7.6 4.6-14.2 8.5-14.8 8.8-7 3.5-47.5 31.1-66 44.9-9.3 7-17.6 13.1-18.4 13.5-.9.6-5.2-3-15-12.7-7.5-7.4-14.7-14-16-14.7-1.5-.8-4.4-1-8.1-.6-4.1.5-6.8.2-9.6-1-2.7-1.1-5.5-1.5-9.3-1.1-3.2.4-6.3.1-7.5-.5-3.3-1.8-8.3-2.6-11.6-1.9-2.7.5-3.8.1-7.3-3.2-2.2-2-6.1-4.7-8.6-6l-4.6-2.2V366c0-7.1-.4-9.4-2.6-14-3.8-8-10.7-15.1-18.7-19.3-9.3-4.9-16.9-6.6-28.4-6.1-11.7.4-12.9.6-31.9 4.9-18.4 4.1-21.8 4.4-44.7 4.7-11.4.1-17.2.5-17.3 1.2 0 .6-.2 9.6-.4 20.1-.3 21.5-.5 23.1-4.5 41-1.6 7.1-3.2 14.6-3.5 16.5-.3 1.9-.8 4.2-1 5-1.3 4.1-.7 20.9.9 26.9 3.7 13.9 12.1 24.8 23.3 30.3 5.8 2.8 7.4 3.2 14.7 3.1l8.2-.1 2.2 4.2c1.2 2.3 4 6 6 8.2 2.8 3 3.7 4.6 3.2 6-1 2.7-.2 10.1 1.4 13.3.8 1.7 1 3.6.5 5.4-.7 2.5-.6 4.7.4 9.8.1 1 .9 2.4 1.7 3.3.8 1.1 1.2 3.8 1.1 7.6-.2 6.8-1.4 5.2 18.3 25.6 11.3 11.6 11.4 11.9 9.8 14-53 69.7-87.9 128.2-118.7 198.9-2.6 6-5.5 12.8-6.5 15-1.7 3.9-10.3 25.5-10.5 26.5-.1.3-.7 1.8-1.4 3.5-8.7 21-28.8 86.9-34.6 113.5-.2.8-1.7 7.6-3.3 15-1.7 7.4-3.4 15.5-3.7 18-.4 2.4-.8 4.7-1 5-.5.8-6.7 38.9-8 49.2-.4 2.5-.9 6.8-1.3 9.4l-.7 4.8-20.5.1c-22.8 0-22.6 0-27.9 7.2-1.6 2.2-3.5 4-4.3 4-2.7 0-8.6 4.3-10.8 7.9-1.2 1.8-2.9 3.4-3.7 3.4-2.5 0-8.1 3.9-9.9 6.9-1.5 2.5-2.4 2.9-8.3 3.4-3.6.3-8.5 1.2-10.8 2l-4.2 1.4-4.5-5.3c-11.1-12.8-30.3-15-48.9-5.6-9.9 4.9-19.1 14.6-29.7 31.1-13.6 21.1-16.9 25.3-31.4 40.1L.8 1147.1l2.3 2.6c1.3 1.4 6.2 6.4 10.9 11.2 14.8 15 17.5 18.4 26.7 32.6 14.3 22.4 20.7 30.2 29.9 36.6 5.2 3.6 17.4 7.7 24.3 8.2 13.1 1 21.7-2.7 32.1-13.7 2.3-2.4 3-2.7 4.8-1.7 1.2.6 4.1 1.4 6.4 1.7 10.9 1.3 11.1 1.4 14.5 5.4 2.1 2.4 4.9 4.4 7.3 5.1 2.7.8 4.2 2 5 3.9 1.3 3.2 5.7 6.6 9.6 7.6 1.6.4 5 2.6 7.6 5 5.3 5 2.6 4.5 30.6 4.8 13.5.1 16.3.4 16.7 1.6.2.8.9 5.5 1.5 10.5 1.2 10.7 1.4 11.6 4.6 31 1.4 8.2 2.7 16.6 3 18.5.3 1.9 1.7 8.4 3 14.5 1.4 6 2.7 12.3 3 14 1 6 11.3 46.4 15.2 59.5 21.2 71.6 48.6 136.2 85.7 201.5 17.7 31.1 43.7 70.3 66.7 100.2l7.9 10.2-14.6 14.6c-8 8-14.5 15.1-14.6 15.8 0 .7-.2 2.3-.3 3.7-.2 1.4.1 3.9.6 5.7.6 2.4.5 3.9-.5 5.5-2.1 3.2-2.8 8.7-1.8 13 .7 2.8.5 4.2-.8 6-1 1.5-1.6 4.5-1.6 9-.1 6.2-.3 6.9-3.8 10.8-2.1 2.2-4.7 6-5.8 8.3l-2.1 4.2h-8.6c-7.3 0-9.6.4-14.3 2.6-12.6 5.9-22.3 20.1-24.6 35.9-1.5 9.6-.7 18 3.3 36.5 5.2 24.7 6.1 31.7 5.9 49.3 0 8.6.3 16.6.8 17.8.8 1.9 1.6 2 17.6 1.9 19.3-.2 27.5.6 41.9 4 5.6 1.4 11.9 2.8 14 3.1 2 .3 4 .8 4.3 1 1.2.7 15.7 1.8 21.9 1.6 12.2-.5 23.8-5.4 32.6-14.1 8.2-8 10.8-14.2 10.9-25.4 0-7.6.2-8.8 1.8-9.3 2.7-.9 9.8-5.8 12.5-8.7 2-2.1 2.9-2.4 5.2-1.7 3.4 1 8.4.4 12-1.5 1.6-.8 3.5-.9 5.5-.4 3.7 1.1 8.6.4 12.6-1.6 1.7-1 5.9-1.7 9.4-1.8l6.2-.2 14.8-14.5c8.1-8 15.2-14.4 15.7-14.2.6.1 5.6 3.8 11.2 8 16.1 12.4 34 25.1 49.6 35.4 18.5 12.1 28.9 18.8 29.5 18.8.3 0 2.8 1.5 5.7 3.4 21 13.3 69.5 38.6 100.8 52.4 54.5 24.1 115.2 44.2 169 56.1 23.4 5.2 50.8 10.4 61 11.7 1.4.1 3.9.5 5.5.8 1.7.3 4.8.8 7 1.1 2.2.3 5.4.7 7 1 6 .9 13 1.8 14.3 1.8 1.5 0 1.4-1.2 1.7 19.7.1 9.6.3 18.8.4 20.4.1 1.9 1.5 4.3 4.5 7.3 2.7 2.7 4.6 5.6 5 7.7.6 3.1 6.8 10.6 8.8 10.6.5 0 1.7 2 2.7 4.3 1.1 2.4 3.6 5.8 5.6 7.4 2.9 2.4 3.8 3.9 4.1 6.9.6 6.6 1.6 11.8 2.6 13.8.8 1.5 0 2.8-4.6 7.3-3.1 3.1-6.4 7-7.3 8.7-3.9 7.4-4.9 20.8-2.3 29.5 5.4 17.7 14.6 27.4 42 44.5 14.7 9.2 20.1 13.5 33.4 26.9 5.5 5.5 11.3 10.5 13.1 11.2l3.1 1.4 12.8-12.9c12.7-12.8 17.7-16.7 41.2-32.1 20.9-13.6 30.3-24.9 33.9-40.4 2-8.5 1.7-16.2-.8-24-1.6-4.8-3.3-7.3-8.2-12.1l-6.2-6 1.4-4c.8-2.1 1.7-6.8 2-10.4.5-5.1 1.1-6.8 2.7-8 3.9-2.7 6.6-6.2 7.1-9.4.5-2.3 1.7-3.7 4.6-5.4 3.6-2.1 5.6-4.9 7.3-10.4.3-1 2.3-3 4.5-4.5 6.7-4.6 7.1-6.4 6.7-27.4-.2-10.1-.1-18.9.1-19.6.3-.6 2.8-1.4 5.6-1.8 2.9-.3 7-.8 9.2-1.1 2.2-.3 9.9-1.4 17-2.5 48.3-7.4 102.5-20.5 150-36.4 59-19.7 122.8-48.8 174.9-79.5 7-4.1 13.5-8 14.4-8.5 16.5-9.4 57.8-37.8 81.7-56.3l8-6.2 8 7.9c23.3 22.8 22.7 22.3 30.5 22 2.9-.2 5.5.4 7.2 1.5 2.9 1.9 8.9 2.7 12.7 1.6 1.7-.4 3.7-.2 5.6.8 1.8.9 5.5 1.5 9.2 1.5 5.7-.1 6.6.2 9.9 3.2 2 1.8 5.6 4.4 7.9 5.6l4.3 2.3v8.1c-.2 9.9 2.6 16.8 9.8 24.5 11.3 12.1 28.1 17.1 48.5 14.6 6.1-.7 7-.9 13.9-2.5 2.5-.5 5.6-1.2 7-1.4 1.4-.3 4.3-1 6.5-1.5 10.7-2.9 20.6-3.8 38.9-3.7 13.2.1 17.1-.2 18.2-1.3 1.1-1 1.4-5.5 1.5-20 0-10.3.2-19.6.4-20.7.2-1.1.7-4 1-6.5.3-2.5 1.7-9.2 3.1-15 1.3-5.8 2.7-11.6 3-12.9 1.1-5.2 1.7-12 1.8-21.1.1-15.1-4.2-25.9-14.4-36-8.1-8.2-13.3-10.4-24.7-10.5h-9.3l-1.4-3.5c-.8-2-3.3-6-5.7-9-3.9-4.9-4.2-5.8-4-10.6.1-3.1-.4-6.4-1.2-8.1-1.1-2-1.4-4.7-1-9.3.4-5.4.2-7.1-1.4-9.8-1.7-2.8-1.9-3.9-1-7.6.5-2.4.7-5.6.3-7.2-.5-1.8-5.9-8.1-14.7-16.9-7.6-7.8-13.9-14.4-13.9-14.8 0-.5 3.9-5.9 8.8-12.1 4.8-6.3 9.3-12.2 10-13.3.7-1 4-5.6 7.4-10.3 44.4-61.6 86.5-141.5 113.2-215 11.7-32 24.3-72.2 28.1-90 .2-.8 1.9-7.9 3.8-15.6 2-7.8 3.8-15.4 4-17 .3-1.6 1.9-9.7 3.5-17.9 1.7-8.3 3.3-16.6 3.6-18.5 2.7-16 5.6-35.6 6.2-41 1.1-11.1-.7-10.2 21.1-10.5 10.5-.2 20.5-.6 22.2-1 1.9-.4 4.3-2.2 6.2-4.6 1.7-2.1 3.7-3.9 4.6-3.9 3.3 0 8.5-3.5 11.3-7.5 2-2.9 3.9-4.4 6-4.8 2.9-.6 6.4-3.4 8.5-7 .6-1 2.9-1.9 6-2.2 7.8-1 10.2-1.4 13-2.5 2.3-.9 3.1-.4 8.8 5.3 5 5 7.4 6.7 12.2 8.2 11.5 3.6 26.7 1.6 38.2-5.2 9.3-5.4 19.8-17.8 31.8-37.3 7.9-12.9 11.5-17.4 26-32.1 7.1-7.2 12.5-13.5 12.5-14.5 0-1.1-6.2-8.2-13.8-16.1-14.2-14.6-15-15.6-29.7-38.3-17.7-27.3-32.7-37.4-54-36.7-11.7.5-21.6 5.7-27.7 14.5-1.4 2.1-1.7 2.2-5.1.7-2-.8-6.6-1.8-10.3-2.1-6.3-.6-7-1-10.9-5-2.5-2.7-5.4-4.6-7.4-5-2.1-.5-3.7-1.6-4.6-3.5-1.8-3.4-7-7.5-10.7-8.4-1.5-.4-3.7-2.3-5.3-4.7-4.1-6.2-6.4-6.7-28.3-6.5l-19.2.3-.5-3.3c-1.1-7.1-1.5-10-2-14.3-.3-2.5-.7-5.4-.9-6.5-.4-2-1.4-8.5-2.1-13.5-3.9-26.3-12.9-67.5-21.6-98.5-1.6-6.1-3.3-11.9-3.6-13-.3-1.1-3-9.9-6-19.5-21.8-69.4-54.6-141.4-93.3-204.5-11.9-19.4-33.2-50.7-47.4-69.5-7.2-9.5-13.3-17.8-13.5-18.3-.2-.5 6.3-7.5 14.3-15.7 9.9-10 14.6-15.5 14.7-17.1.1-1.3.1-4.1.1-6.2-.1-2.1.8-5.6 2-7.8 1.6-3.2 2-5.1 1.5-9.4-.3-3.5 0-6.8 1-9.7.9-2.5 1.3-6.1 1-8.8-.5-4-.2-4.8 3.4-8.8 2.1-2.4 4.6-6.1 5.6-8.2l1.8-3.8 7.5.1c11.7.1 18.8-3.1 27.6-12 5.3-5.5 10.8-16.5 12.2-24.1 1-5.4.8-20.6-.2-25.2-.3-1.3-.8-4.2-1.2-6.5-.3-2.2-1.9-9.6-3.6-16.5-2.8-11.5-3.1-14.3-3.5-35-.3-13-.9-23-1.5-23.7-.8-1-5.5-1.3-17.7-1.2-21.8.1-23.8-.1-49.9-6-11.6-2.7-18.6-3.5-28.2-3.6-9.9 0-14.5.9-21.6 4-17.4 7.7-27 22.2-25.7 38.7.4 5.5.4 5.5-2.9 6.8-3 1.2-12.9 8.5-13.6 10.1-.2.4-1.5.4-3 0-3.5-1-9.1-.3-11.8 1.4-1.4.9-3.9 1.2-8 .8-4.2-.4-7-.1-9.8 1.1-2.9 1.2-5.5 1.5-9.8 1-7.4-.8-7.8-.6-24 15.8-7 7-13 12.8-13.4 12.8-.3 0-6.5-4.4-13.8-9.8-81.2-60.9-165.7-105.7-259.9-137.8-45.7-15.6-109.8-31.5-148.2-36.9-2.3-.3-5.2-.7-6.5-1-1.4-.3-4.3-.7-6.5-1-2.2-.3-5.1-.7-6.5-.9-1.4-.3-5-.7-8-1.1-3-.3-6.4-.7-7.5-1-1.1-.2-2.3-.4-2.6-.4-.3-.1-.4-8.7-.3-19.2.1-11.4-.2-20.3-.8-22.1-.6-1.7-3.1-4.5-5.9-6.5-3.2-2.2-4.9-4.2-4.9-5.5 0-2.8-4.4-8.4-8-10.3-1.9-1-3.1-2.6-3.5-4.7-.5-2-2.4-4.9-5-7.3-4-3.8-4.3-4.5-4.9-10.5-.3-3.6-1.1-8.3-1.9-10.5l-1.4-3.9 4.1-3.4c9.1-7.6 13.2-17.5 12.3-30.1-.8-12.1-6-23.8-14.4-32.6-3.7-3.9-18.3-15.1-21.7-16.6-1.4-.7-2.6-1.6-2.6-2.1 0-.4-.5-.8-1-.8-.6 0-5.7-3.1-11.3-6.9-6.7-4.5-15.2-11.7-24.7-20.9-8-7.8-14.9-14.2-15.4-14.2s-7 6-14.5 13.2zm135.4 446.3c5.6.7 31 5.9 39.5 8 3 .8 6.6 1.6 8 1.9 25.8 5.3 85 25.8 114.8 39.7 3.5 1.6 6.5 2.9 6.7 2.9.8 0 33.8 16.5 43 21.5 21.1 11.4 55 32.7 71.3 44.7l5.3 3.9-4 4.4c-4.5 4.8-4.7 5.7-5.6 16.5-.3 4.1-.7 8.4-.9 9.5-.1 1.1.1 3.5.5 5.4.5 2.4.3 4.3-.7 6.2-.8 1.6-1.4 4.5-1.4 6.7 0 2.8-.6 4.4-2.3 5.8-15 12.7-23.2 17.6-52.7 31.7-12.5 6-22 12.2-26.2 17.2-5.2 6-7.3 15-5.7 24.5.7 4.1.5 6.6-.6 10-.8 2.5-1.6 5.4-1.8 6.5-1 5.5-1.5 5.6-7.5 2.5-4.8-2.4-6.4-2.7-9.7-2.1-5.5 1-8 2.5-11.2 6.8-2.6 3.4-2.8 4.3-2.6 11.6l.2 7.9-5.2-.7c-9.4-1.4-16.9-1-21.7 1.3-9 4.3-13.6 10.2-23 29.2-12.8 25.9-14.1 28.4-20.5 38-7.5 11.4-16.8 21-20.2 21h-2.8c-.3 0-2.5.9-4.9 2-3.6 1.5-5.2 1.7-8.1.9-7.5-2.1-8.7-1.4-22.7 12.4-4.4 4.3-8.5 7.6-9.1 7.4-.7-.3-6.2-2.8-12.3-5.6-6.1-2.7-14.8-6.3-19.3-7.8l-8.1-2.8v-14c0-15.7-.6-17.6-6.2-21.5-2.4-1.6-4.8-4.7-6.8-8.8-1.8-3.4-3.6-6.2-4.2-6.2-1.1 0-.6-17 .7-25 1.1-6.2 5.3-21.3 9-31.5 8.7-24.2 9.8-28.5 9.9-38.5.1-8-.3-10.2-2.1-13.5-2.6-4.9-8.7-11.2-14.2-14.5-2.2-1.4-4.1-2.7-4.1-3 0-.3 1.4-1.4 3.1-2.4 5.5-3.2 8.6-7.1 9.4-11.5 1.8-10.5-2.9-17.9-12.4-19.7-4.8-.9-5.4-3-2.1-7.1 1.1-1.4 2.2-4 2.6-5.8.4-2.4 1.5-3.8 4.2-5.3 5.1-2.9 10.9-8.8 13.5-13.6 1.7-3.3 2.2-5.8 2.1-12.6 0-10.3-.3-11.8-5.5-26.8-10.7-30.5-13.6-41.4-14.6-55.2-.5-7.3-.5-7.6 3.1-12.9 2-2.9 3.6-5.7 3.6-6.2 0-.4 2-2.2 4.4-3.8 2.4-1.7 5-4.5 5.9-6.3.9-1.8 3.4-5 5.7-7.2 2.7-2.6 4-4.8 4.1-6.7.1-1.6.3-3.4.4-3.9.1-.6.3-2.5.4-4.4.1-3.4.2-3.4 3.4-2.6 1.7.5 5.5 1.1 8.2 1.5zm-232.4-.3c.6 9.8 2.3 13.7 7.4 16.8 2 1.2 4.4 3.9 5.5 6 1.1 2.1 3.9 5.1 6.2 6.7 2.4 1.6 4.4 3.8 4.6 4.9.2 1.2 1.9 3.8 3.8 6 3.4 3.7 3.5 4 3 9.8-.3 3.4-.8 7.2-1 8.6-.3 1.4-.7 4.2-1 6.3-1 6.2-5.2 20.5-10.7 35.9-9.4 26.2-10.6 37.1-5.3 46.8 2.8 5.1 8.1 10.5 13.7 13.8 1.5.9 3 2.8 3.4 4.2.3 1.4 1.7 4.5 3.1 6.9 2 3.6 2.2 4.6 1.1 5-.8.3-3.4 1.2-5.8 2.1-6.6 2.3-10.4 7.4-10.4 14.3-.1 7.7 1.6 10.8 7.8 14.9l5.4 3.5-6.4 4.7c-18.4 13.5-19.4 22.8-6.5 59.4 5.3 15.3 9.9 30.8 10.6 35.7.2 1.6.6 4.1.9 5.5.3 1.4.7 5.9 1 10.1.4 7.3.3 7.7-3 12.3-1.8 2.6-3.7 6-4 7.4-.4 1.7-1.8 3.3-3.7 4.3-6.4 3.1-7.1 5.2-7.3 21.9-.1 8.2-.3 15.1-.6 15.3-.2.2-5.6 2.3-11.9 4.7-6.3 2.3-15.3 6-19.9 8.1l-8.4 3.9-9.1-8.8c-11.7-11.5-13.4-12.5-18.6-11.8-2.3.3-4.6.8-5.1 1.2-.6.3-2.7-.2-4.7-1.2-2-.9-5.7-1.9-8.2-2.2-4.1-.4-5-1.1-10.5-7.4-8.3-9.5-16-21.5-22.9-35.4-3.2-6.6-7.9-16.1-10.5-21.2-11.1-22.5-22.5-29.6-41.3-25.7-6.2 1.3-6.7 1.2-6.2-2 2-11.4-1.6-19.1-10.7-22.9-4.3-1.8-7.9-1.3-13.7 1.9l-4.3 2.4-1.5-3.4c-.8-1.9-1.4-4-1.4-4.8 0-.7-.5-1.8-1.2-2.5s-1-3.4-.8-6.9c1-19.6.1-23.2-8-31.3-5.1-5.1-8.6-7.2-28.3-17-31.7-15.7-49.6-27.9-50.3-34.3-.2-1.8-.7-4.8-1.1-6.7-.4-1.9-.8-6.7-.9-10.5-.5-20.3-1-22.4-6.8-29-1.4-1.7-2.6-3.3-2.6-3.6 0-.3 1.3-1.5 2.8-2.6 4.5-3.3 31.2-21.3 31.7-21.3.2 0 3-1.8 6.3-3.9 3.2-2.2 7.4-4.8 9.3-5.9 1.9-1.1 9-5.2 15.9-9.1 16.3-9.4 54.7-28.2 72.5-35.6 7.7-3.2 14.9-6.1 16-6.6 8.1-3.3 36.1-13.3 40.5-14.4.3-.1 1.2-.4 2-.8 5.5-2.2 48.5-13.9 59.4-16.2 11.9-2.4 28-5.5 31.6-6 2.5-.4 4.7-.9 4.9-1.1 1-.9 4.1-.3 4.2.8zm-315 255.5c1.3 1.6 1.2 1.7-.3.4-1.7-1.3-2.2-2.1-1.4-2.1.2 0 1 .8 1.7 1.7zm-130 30.5c1.7.9 4.1 1.5 5.3 1.2 5-.9 27.1.1 32.4 1.5 2.4.6 4.7.9 5.1.6 1.3-.7 8.1 7.1 15.3 17.5 6.2 8.9 11.6 18.9 21.8 40.5 12.1 25.6 21.6 31.9 43.2 29 3.1-.4 5.7-.1 8.3.9 2.1.9 4.5 1.6 5.4 1.6.9 0 2.4.7 3.4 1.5 1.8 1.3 1.8 1.5-.7 5.8-4.3 7.3-3 14.5 3.7 20.4 4.3 3.8 9.2 4.9 14.9 3.5 4.7-1.2 6.2-.7 5.3 1.7-.3.9-.8 5.6-1 10.6-.8 19.1 4.1 24.4 38.5 41.2 22 10.8 35.5 19.2 45 28 5.1 4.7 6 6 6 8.9 0 1.9.7 5.1 1.5 7.1 1.1 2.5 1.3 5.1.9 8.4-.4 2.6-.4 6 0 7.4.4 1.4 5.3 7.3 11 13.1l10.4 10.5-3 6.2c-2.9 5.8-11.8 27.7-13.2 32.4-.6 2-1.2 2.1-14.5 2-15.7-.2-17.5.4-21.7 6.5-1.5 2.2-4.3 4.6-6.3 5.4-1.9.8-5.1 2.7-7 4.1-3.7 2.9-4.4 3-16.3 1.9-11.1-.9-23.7-3.9-38.9-9.2-21.2-7.4-35.9-11.5-41.4-11.5-11-.2-18.3 3.9-26.2 14.5-2.6 3.6-5.1 6.5-5.4 6.6-.4 0-1.2-1.4-1.9-3-3.1-7.5-12.7-11.6-21-9.1-4.1 1.2-10 7.3-10 10.3 0 .9-.5 2.9-1 4.3l-1 2.7-3.6-2.3c-2-1.2-5.1-2.7-6.9-3.3-2.1-.8-4.9-3.4-8.1-7.6-2.8-3.7-7-7.7-9.8-9.5-4.7-2.8-5.5-3-15-3-10.8.1-8.8-.5-41.1 10.8-9.3 3.2-23.1 7-29.9 8.1-16 2.7-17.6 2.7-21.5-.7-1.9-1.6-4.9-3.6-6.8-4.3-1.8-.8-3.3-1.9-3.3-2.4 0-1.6-7.1-9-8.7-9-.8 0-2.9-1.6-4.6-3.6-4-4.6-8.2-6.4-14.7-6.4-4.9 0-5 0-4.5-2.8.2-1.5.7-4.5 1-6.7 1.5-9.5 6.8-34.7 10.1-47.8 15.1-60.7 35.8-113.6 65.9-169.2 11.6-21.3 24.8-42.7 39.3-63.2l6.4-9.1 3 2.6c1.6 1.5 4.3 3.5 5.9 4.4zM1728 760.5c21.6 32.3 41.6 68.8 57.8 105.7 19.1 43.6 36.6 97 42.8 130.8.3 1.4.9 4.1 1.4 6 .5 1.9 1.2 4.8 1.4 6.5.3 1.6.8 3.9 1 5 .2 1.1.7 4 1.1 6.5.4 2.5.9 5.4 1.1 6.5.3 1.1.7 3.9 1.1 6.2l.6 4.3-4.7.1c-2.5.1-5 .3-5.6.4-.5.1-1.7.3-2.5.4-.8 0-3.2 1.9-5.3 4.2-2.2 2.2-5.4 4.8-7.3 5.7-1.8.9-4.6 3.6-6.1 5.8-1.5 2.3-4.2 4.7-6 5.5-1.8.7-4.5 2.5-6 4-2.2 2.2-3.4 2.6-6.5 2.3-17.3-2-30.9-5.2-46.8-10.9-26.8-9.7-28.1-10-40-10-5.7 0-9 .5-11.6 1.8-4.5 2.2-12 9.6-14.5 14.3-1.2 2.2-2.6 3.4-4 3.4-1.2 0-3.8 1.1-5.8 2.5-5.3 3.6-7.2 3.3-8.1-1.2-1.7-9.2-7.1-13.3-16.7-12.9-6.8.3-10 2.2-13.6 8.2-1.5 2.4-2.9 4.4-3.3 4.4-.3 0-1.5-1.7-2.6-3.8-2.8-4.9-10.7-12.7-15.2-14.9-2.8-1.4-5.9-1.8-13.6-1.7-9.3.1-11 .4-23.5 4.8-31.9 11.3-46.5 15-63 15.9-6.1.4-6.7.2-10.4-2.9-2.1-1.8-5.1-3.6-6.7-3.9-1.9-.4-3.9-2.1-5.7-4.8-4.1-6.3-6.6-7-22.1-7.1l-13.4-.1-4.9-12.5c-2.6-6.9-6.5-16-8.5-20.3l-3.7-7.8 10.2-10.2c5.5-5.6 10.5-11.3 11-12.6.5-1.3.5-4.6.1-7.3-.6-3.4-.4-5.8.6-8.1 1.3-3 2.2-7.1 2.4-10.5.2-2 11.1-12 19.6-17.6 8-5.4 20.4-12.1 34.5-18.6 19.9-9.2 28.5-15.7 32.9-24.5 2.5-5 2.9-11 1.7-21.9-.8-6.6-.7-6.8 1.2-6.2 9.8 3.1 17.2.7 22.4-7.2 2.5-3.8 2.3-10.9-.5-16.5l-2.4-4.6 2.6-.9c11-4.1 12.2-4.3 17-3.7 14.5 1.8 21.5-.1 29.5-8.1 3-3 7.9-10.5 10.8-16.4 16.6-34.2 24.6-48.1 33.4-57.7 3.3-3.5 4.7-4.3 8.9-4.9 2.8-.3 5.5-.9 6-1.2.6-.4 4.8-.8 9.5-.9 4.7-.1 9.6-.3 11-.4 1.4-.2 4.1 0 6.1.3 4.3.6 8.1-.9 12.8-5l3.4-3 4 5.6c2.2 3.1 7 10.2 10.7 15.7zM639.4 1227.6c1.7 8.9 7.5 13.7 16.1 13.6 6.8 0 11-2.3 14.3-7.8 1.5-2.4 3-4.4 3.3-4.4.4 0 2.6 2.6 5 5.7 2.4 3.2 5.5 6.9 6.9 8.2 6.3 5.9 18.5 8.2 29.2 5.5 6.7-1.8 14.7-4.3 17.3-5.4 1.1-.5 8.2-3 15.8-5.5 17-5.6 30.6-8.5 41.2-8.7 7.1-.2 8.4.1 12 2.5 2.2 1.4 5.4 3.1 7 3.7 1.7.6 4.3 2.9 6 5.5 1.6 2.4 4.1 4.7 5.5 5.1 1.4.4 8.7.8 16.4 1 10.3.1 14.1.6 14.7 1.6.5.7 2.2 5.1 3.9 9.8 1.7 4.7 5.2 13.2 7.8 19l4.7 10.5-9.4 9.5c-11 11.2-12.1 13.3-10.9 20.2.7 3.8.6 5.8-.5 8.2-.8 1.7-1.8 5.1-2.2 7.5-1.5 8.9-18.7 21.8-49.4 36.8-27.3 13.3-31.9 16.5-37.9 25.6-2.4 3.6-2.7 5-2.7 12.1 0 4.5.2 10.1.5 12.6.5 4.5.5 4.5-2.5 4.3-12.5-1-16 .3-20.6 7.5-4 6.3-3.7 12.9.9 18.4 1.2 1.4 1.2 2.1.2 3.3-.7.8-2 1.5-2.9 1.5-.9.1-4 .9-6.9 1.9-4.3 1.5-6.2 1.6-10.5.9-10.6-2-19.5.5-26.5 7.2-4.3 4.1-10.7 14.3-15.7 25-6.4 13.6-13.9 28-17.8 34.1-6.3 9.9-15.6 20.7-17.4 20.5-1-.2-3.3.1-5.3.7-1.9.5-7.5 1.1-12.5 1.3-22.1.9-22.3.9-26.8 4.5-2.3 1.8-4.6 3.9-5 4.6-1.1 1.8-3.9-1.7-17.1-21.6-16.2-24.3-27.9-44.5-41.6-71.6-17.5-34.5-27.3-57.8-39.1-92.5-9.3-27.7-20-67.7-23.5-88-.3-1.4-.9-4.8-1.4-7.5-.5-2.8-1.2-6.6-1.5-8.5-.3-1.9-.8-4.3-1.1-5.3-.3-1 0-1.7.8-1.8 10.7-.7 13.5-1.9 17.6-8 1.3-1.9 3.3-3.8 4.5-4.2 2.9-1.1 8.7-6.7 8.7-8.4 0-.8 1.6-2.1 3.5-2.8 1.9-.8 4.9-2.8 6.7-4.4 2.7-2.3 4.1-2.8 7.3-2.6 15.9 1.1 28.2 3.8 47.7 10.7 19.1 6.6 25.6 8.7 29.2 9.4 6.8 1.2 14.1 1.1 18.6-.2 5.3-1.6 13-7.9 17.4-14.3 2-2.9 4-4.5 6.7-5.3 2.2-.6 3.9-1.5 3.9-1.9 0-1.1 5.4-2.8 6.3-2 .4.4.9 1.6 1.1 2.7zm1025-.2c2.7 1.4 5.4 2.6 6 2.6.6 0 2.6 2.3 4.5 5.1 3.8 5.6 9.9 10.9 14.7 12.8 1.7.6 5.4 1.3 8.3 1.5 8.8.5 14.1-.8 41.6-10.4 17.9-6.2 31.8-9.5 44.5-10.4 5.4-.4 6.8-.2 8.5 1.4 1.1 1.1 4.1 3 6.5 4.3 2.5 1.3 5 3.3 5.5 4.4 1.8 3.5 3.7 5.4 7.6 7.3 2 1.1 4.7 3.5 5.9 5.5 2.8 4.5 7 6.7 13.2 6.9 5.3.1 5.2 0 3.8 7.7-.6 3-1.3 7-1.6 8.9-1 6.7-8.4 38.9-12.3 53.5-19.5 72.6-50.9 142-92.7 204.5-6.8 10.2-13.2 19.6-14.3 20.9l-1.9 2.5-5.2-4.2c-2.9-2.3-6-4.3-6.9-4.3-.9-.1-3.6-.3-6.1-.4-2.5-.2-7-.6-10-1s-6.6-.2-8 .3c-1.8.7-3.3.6-5.2-.4-1.5-.8-4.5-1.5-6.7-1.6-4.8-.2-4.5 0-10.3-6.8-8-9.6-15.3-21.9-26.2-44.3-9-18.4-11.5-22.5-16.1-27.2-8.3-8.4-16.5-10.9-28.8-8.6-5.2.9-6.3.8-9.7-.9-2.2-1.1-5-2-6.3-2-4 0-4.9-1.9-2.6-5.6 4.5-7.4 4.3-13.4-.9-19.5-3-3.6-10.4-7.3-13-6.5-.9.3-3.4.8-5.5 1.1l-3.8.6.8-7.3c1.7-15.8-.1-21.6-9.1-30.2-3.9-3.7-9.5-7-23.6-13.9-30.4-14.9-40-20.9-51.2-31.7-4.6-4.4-5.8-6.3-6.2-9.5-.3-2.2-1.2-5.6-2-7.6s-1.4-3.8-1.2-4c1-1.1 1.4-9.3.6-11.5-.6-1.4-5.3-6.9-10.6-12.4l-9.5-9.8 4.6-10.4c7.2-15.9 7.2-15.9 9.5-23.1 1.2-3.7 2.5-6.7 2.8-6.8.4 0 7.2-.2 15.2-.3 8.9-.1 15.3-.7 16.7-1.4 1.2-.7 3.4-3.1 5-5.4 1.7-2.5 4-4.5 5.8-5.1 1.7-.5 4.6-2.2 6.7-3.8 3.4-2.7 4.1-2.8 10.5-2.4 15.5 1.1 26.4 3.4 42.5 9 30.8 10.8 36.9 12.4 46.7 11.9 8.9-.4 15.8-5.3 24.1-16.8l3.3-4.5 2.7 4.3c4.4 6.8 6.9 8.3 14.8 8.5 6.9.2 7.1.1 11-3.6 3.1-3 4.2-4.8 4.7-8.5.8-5.4 1.3-5.4 8.9-1.4zM1015 1431.8c11.4 5.2 15.3 6.9 23.5 9.7 4.4 1.6 8.4 3.2 9 3.7.5.5 1 7 1 14.6.1 7.5.5 14.8 1 16.2.9 2.8 3.8 5.6 6.5 6.5 1.7.5 5 6 5 8.2 0 .5 1.4 2.2 3.1 3.9 3.1 2.9 3.1 3 2.5 10.4-1.4 17.9-2.9 24.1-13.3 55-7.2 21.1-7.6 23-7.6 31 0 6.6.5 9.4 2 12.5 2.6 5 7.9 10.5 14.4 14.9l4.9 3.3-4.9 3.1c-7.7 4.7-10.1 11.4-7.5 20.2 1.5 5.1 4.9 8.7 9.1 9.5 1.2.3 3.4.7 4.6 1 2.9.6 2.9 3.2-.1 7-1.9 2.4-2.5 4.3-2.1 7.1 0 .3-2.1 2.1-4.8 3.9-2.7 1.8-6.6 5.1-8.7 7.5-9.6 10.7-9.6 21.4.3 49.5 9.4 26.5 12.1 37.2 13.6 52.8.6 6.6.5 6.9-2.6 10.4-1.7 2-3.6 4.9-4.1 6.4-.5 1.6-1.8 3.1-2.8 3.4-2.4.8-9 8.1-9 10 0 .8-1 2-2.2 2.6-6.2 3.1-8.5 7.2-9.4 15.9-.1 1.4-.2 2.8-.3 3.1-.1.3-3.4 0-7.3-.6-4-.7-8.6-1.5-10.3-1.8-34.7-5.8-90.8-22.2-130-38-31.6-12.7-70-31.8-98.5-48.9-18.1-10.8-47-29.8-48.9-32.2-.9-1.1-.7-1.8.6-3.2 5.2-5.1 6.1-7.3 5.7-13.7-.3-3.4.1-8.6.7-11.5.7-3.6.7-6.2.1-8.2-.8-2-.7-3.9.3-6.7.8-2.1 1.4-5.3 1.5-7.2 0-2.7.9-4.2 4.8-7.7 8.3-7.8 22.1-16.3 43.2-26.6 21.5-10.6 26.4-13.5 31.9-18.9 6.4-6.4 9.1-17.1 7.1-27.9-.6-3.4-.3-5.9 1.4-11.2 2.7-8.3 3.9-9.7 6.3-7.7 5.6 4.4 10.3 5 17 2 7.6-3.5 10.6-10.6 8.8-20.9l-.7-4.3 4.4.8c2.3.5 7.9.8 12.3.8 6.8-.1 8.8-.5 13-2.9 7-3.8 13.3-12.3 21.1-28.4 14-29 19.7-38.7 30.4-51.1 5.3-6.1 6.2-6.8 9.8-6.9 4.4-.2 8.7-1.5 9.6-3 .4-.6 2.3-.6 5.2 0 8 1.7 10 .8 21.4-10.6 5.7-5.8 10.6-10.3 10.9-10.2.3.2 3.5 1.7 7.1 3.4zm296.6 17.8c1.4.4 4.7.2 7.3-.3 3.6-.7 5.2-.6 6.8.4 1.1.8 4.4 1.6 7.2 2 4.8.5 5.6 1.1 10.7 6.7 10.5 11.5 18.2 24.3 31.7 52.6 12.3 25.8 21.4 32.8 39.5 30.4 8.7-1.2 11.6-.8 10.7 1.4-.4.9-.9 3.9-1.2 6.7-.4 4.3 0 5.6 2.4 9.3 3.1 4.7 9.1 8.2 14 8.2 1.6 0 5.2-1.1 7.8-2.6 5.2-2.7 6.3-2.4 7.1 2.2.3 1.6 1.2 4.3 2 6 1.2 2.4 1.4 4.6.8 8.6-2.1 14.4.8 23.4 9.9 31.2 3.4 2.8 13.9 8.8 29.4 16.6 13.3 6.6 27.7 14.6 32 17.6 8.8 6.2 15.3 12.6 15.4 15.2.1 2.1.4 3.7 1.8 8.7.6 2.4.7 5.3.3 7-.5 1.7-.4 5 .1 7.5.8 4.3.9 6.6.3 13.5-.3 3.7 1.4 7.2 4.8 10.4 1.4 1.4 2.6 3 2.6 3.7 0 1.8-38.1 26.8-59.5 39.1-56.8 32.6-124.1 59.5-184.7 73.8-6 1.4-40 8.4-43.4 8.9-2.2.4-5.4.9-7.1 1.2-3.2.6-3.3.5-3.4-3-.1-2-.3-4.1-.4-4.6-.1-.6-.3-2.2-.4-3.6 0-1.4-1.5-3.9-3.3-5.7-1.8-1.8-4.6-5.2-6.3-7.7-1.6-2.4-4.6-5.5-6.5-6.8-1.9-1.2-3.9-3.5-4.6-5-.6-1.5-2.3-4.1-3.7-5.8-3.2-3.8-3.4-7.5-1.2-21.4 1.9-11.1 4.2-19.1 12.6-43.5 6-17.3 6.3-18.4 6.3-28 .1-9.2-.1-10.4-2.7-14.8-2.5-4.2-7.9-9.3-14.5-13.7-2.2-1.4-2.9-3.2-3.1-7.2-.1-.9-1-2-2.1-2.3-1.4-.4-2-1.5-2-3.5 0-3 .4-3.2 6.7-4.5 7.2-1.4 12-11.9 9.4-20.5-1.2-3.9-8.1-11-10.8-11-2.5 0-1.3-1.5 5.2-6.3 11.7-8.7 15.2-15.7 14.2-28.6-.7-7.8-2.4-14.3-9.4-34.1-7.7-21.7-10.1-31.8-11-46.6-.6-10-.6-10 2.5-14.3 1.7-2.3 3.4-5.6 3.7-7.2.5-2.1 1.8-3.5 4.6-4.9 6.1-3.1 6.9-5.8 6.9-22 0-10.4.3-14.2 1.3-14.4 2.8-.9 16.4-6 19.2-7.2 1.7-.7 6.9-3 11.7-5.2l8.8-3.9 10.5 10.4c5.9 5.6 11.7 10.6 13.1 10.9z"/></svg>